<svg id="Layer_1" xmlns="http://www.w3.org/2000/svg" viewBox="0 0 304.48 304.48" width="2em" height="2em" fill="#00F"><defs><style>.cls-2 {
        fill: #fff;
      }
    </style></defs><circle class="cls-1" cx="152.24" cy="152.24" r="152.24"></circle><path class="cls-2" d="m195.48,111.33v96.43c0,4.93-4,8.94-8.93,8.94h-69.9c-4.94,0-8.94-4-8.94-8.94v-96.43h-25.84v87.4c0,5.62,1.85,11.38,6.15,15.67l21.84,20.47c4.29,4.29,8.98,6.22,15.6,6.22h52.24c6.62,0,11.31-1.92,15.6-6.22l21.84-20.47c4.29-4.29,6.13-10.05,6.13-15.67l.05-87.4h-25.84Z"></path><polygon class="cls-2" points="164.53 72.75 164.53 66.64 138.65 66.64 138.65 72.75 138.65 92.53 164.53 92.53 164.53 72.75"></polygon><polygon class="cls-2" points="107.77 72.75 107.77 66.64 81.88 66.64 81.88 72.75 81.88 92.53 107.77 92.53 107.77 72.75"></polygon><polygon class="cls-2" points="221.3 72.75 221.3 66.64 195.41 66.64 195.41 72.75 195.41 92.53 221.3 92.53 221.3 72.75"></polygon></svg>